<?xml version="1.0" encoding="UTF-8" standalone="no"?>
<!-- Created with Inkscape (http://www.inkscape.org/) -->

<svg
   xmlns:dc="http://purl.org/dc/elements/1.1/"
   xmlns:cc="http://creativecommons.org/ns#"
   xmlns:rdf="http://www.w3.org/1999/02/22-rdf-syntax-ns#"
   xmlns:svg="http://www.w3.org/2000/svg"
   xmlns="http://www.w3.org/2000/svg"
   xmlns:sodipodi="http://sodipodi.sourceforge.net/DTD/sodipodi-0.dtd"
   xmlns:inkscape="http://www.inkscape.org/namespaces/inkscape"
   version="1.1"
   id="svg2"
   xml:space="preserve"
   width="544"
   height="369"
   viewBox="0 0 544 369"
   sodipodi:docname="feedbackalpha0.svg"
   inkscape:version="0.92.4 5da689c313, 2019-01-14"><metadata
     id="metadata8"><rdf:RDF><cc:Work
         rdf:about=""><dc:format>image/svg+xml</dc:format><dc:type
           rdf:resource="http://purl.org/dc/dcmitype/StillImage" /><dc:title></dc:title></cc:Work></rdf:RDF></metadata><defs
     id="defs6"><clipPath
       clipPathUnits="userSpaceOnUse"
       id="clipPath126"><path
         d="M 54,36 H 388.8 V 253.44 H 54 Z"
         id="path124"
         inkscape:connector-curvature="0" /></clipPath><clipPath
       clipPathUnits="userSpaceOnUse"
       id="clipPath136"><path
         d="M 54,36 H 388.8 V 253.44 H 54 Z"
         id="path134"
         inkscape:connector-curvature="0" /></clipPath><clipPath
       clipPathUnits="userSpaceOnUse"
       id="clipPath146"><path
         d="M 54,36 H 388.8 V 253.44 H 54 Z"
         id="path144"
         inkscape:connector-curvature="0" /></clipPath><clipPath
       clipPathUnits="userSpaceOnUse"
       id="clipPath156"><path
         d="M 54,36 H 388.8 V 253.44 H 54 Z"
         id="path154"
         inkscape:connector-curvature="0" /></clipPath><clipPath
       clipPathUnits="userSpaceOnUse"
       id="clipPath166"><path
         d="M 54,36 H 388.8 V 253.44 H 54 Z"
         id="path164"
         inkscape:connector-curvature="0" /></clipPath><clipPath
       clipPathUnits="userSpaceOnUse"
       id="clipPath176"><path
         d="M 54,36 H 388.8 V 253.44 H 54 Z"
         id="path174"
         inkscape:connector-curvature="0" /></clipPath><clipPath
       clipPathUnits="userSpaceOnUse"
       id="clipPath186"><path
         d="M 54,36 H 388.8 V 253.44 H 54 Z"
         id="path184"
         inkscape:connector-curvature="0" /></clipPath><clipPath
       clipPathUnits="userSpaceOnUse"
       id="clipPath214"><path
         d="M -1021,-463 H 1794 V 1233 H -1021 Z"
         id="path212"
         inkscape:connector-curvature="0" /></clipPath><clipPath
       clipPathUnits="userSpaceOnUse"
       id="clipPath242"><path
         d="M -1021,-463 H 1794 V 1233 H -1021 Z"
         id="path240"
         inkscape:connector-curvature="0" /></clipPath><clipPath
       clipPathUnits="userSpaceOnUse"
       id="clipPath262"><path
         d="M -1021,-463 H 1794 V 1233 H -1021 Z"
         id="path260"
         inkscape:connector-curvature="0" /></clipPath><clipPath
       clipPathUnits="userSpaceOnUse"
       id="clipPath282"><path
         d="M -1021,-463 H 1794 V 1233 H -1021 Z"
         id="path280"
         inkscape:connector-curvature="0" /></clipPath><clipPath
       clipPathUnits="userSpaceOnUse"
       id="clipPath302"><path
         d="M -1021,-463 H 1794 V 1233 H -1021 Z"
         id="path300"
         inkscape:connector-curvature="0" /></clipPath><clipPath
       clipPathUnits="userSpaceOnUse"
       id="clipPath322"><path
         d="M -1021,-463 H 1794 V 1233 H -1021 Z"
         id="path320"
         inkscape:connector-curvature="0" /></clipPath></defs><sodipodi:namedview
     pagecolor="#40474b"
     bordercolor="#666666"
     borderopacity="1"
     objecttolerance="10"
     gridtolerance="10"
     guidetolerance="10"
     inkscape:pageopacity="0"
     inkscape:pageshadow="2"
     inkscape:window-width="2560"
     inkscape:window-height="1379"
     id="namedview4"
     showgrid="false"
     inkscape:zoom="1.7383042"
     inkscape:cx="162.10974"
     inkscape:cy="221.77753"
     inkscape:window-x="3200"
     inkscape:window-y="0"
     inkscape:window-maximized="1"
     inkscape:current-layer="g10"
     scale-x="1"
     inkscape:pagecheckerboard="false"
     inkscape:snap-bbox="true"
     inkscape:snap-page="true" /><g
     id="g10"
     inkscape:groupmode="layer"
     inkscape:label="feedbackalpha0"
     transform="matrix(1.3333333,0,0,-1.3333333,0,369)"><rect
       style="opacity:1;fill:#ffffff;fill-opacity:0.60964912;stroke:none;stroke-width:12.47244072;stroke-linecap:butt;stroke-linejoin:round;stroke-miterlimit:4;stroke-dasharray:none;stroke-dashoffset:0;stroke-opacity:1;paint-order:markers fill stroke"
       id="rect1205"
       width="408"
       height="276.75"
       x="0"
       y="-276.75"
       transform="scale(1,-1)"
       ry="0" /><path
       d="M 0,0 H 432 V 288 H 0 Z"
       style="fill:#ffffff;fill-opacity:0;fill-rule:nonzero;stroke:none"
       id="path12"
       inkscape:connector-curvature="0" /><path
       d="M 54,36 H 388.8 V 253.44 H 54 Z"
       style="fill:#000000;fill-opacity:0.53947371;fill-rule:nonzero;stroke:none"
       id="path14"
       inkscape:connector-curvature="0" /><path
       d="M 54,36 V 32.5"
       style="fill:#000000;fill-opacity:1;fill-rule:nonzero;stroke:#000000;stroke-width:0.80000001;stroke-linecap:butt;stroke-linejoin:round;stroke-miterlimit:10;stroke-dasharray:none;stroke-opacity:1"
       id="path16"
       inkscape:connector-curvature="0" /><text
       transform="matrix(1,0,0,-1,46.046875,21.40625)"
       style="font-variant:normal;font-weight:normal;font-size:10px;font-family:'DejaVu Sans';-inkscape-font-specification:DejaVuSans;writing-mode:lr-tb;fill:#000000;fill-opacity:1;fill-rule:nonzero;stroke:none"
       id="text20"><tspan
         x="0 6.3600001 9.54"
         y="0"
         sodipodi:role="line"
         id="tspan18">0.0</tspan></text>
<path
       d="M 95.85,36 V 32.5"
       style="fill:#000000;fill-opacity:1;fill-rule:nonzero;stroke:#000000;stroke-width:0.80000001;stroke-linecap:butt;stroke-linejoin:round;stroke-miterlimit:10;stroke-dasharray:none;stroke-opacity:1"
       id="path22"
       inkscape:connector-curvature="0" /><text
       transform="matrix(1,0,0,-1,87.896875,21.40625)"
       style="font-variant:normal;font-weight:normal;font-size:10px;font-family:'DejaVu Sans';-inkscape-font-specification:DejaVuSans;writing-mode:lr-tb;fill:#000000;fill-opacity:1;fill-rule:nonzero;stroke:none"
       id="text26"><tspan
         x="0 6.3600001 9.54"
         y="0"
         sodipodi:role="line"
         id="tspan24">2.5</tspan></text>
<path
       d="M 137.7,36 V 32.5"
       style="fill:#000000;fill-opacity:1;fill-rule:nonzero;stroke:#000000;stroke-width:0.80000001;stroke-linecap:butt;stroke-linejoin:round;stroke-miterlimit:10;stroke-dasharray:none;stroke-opacity:1"
       id="path28"
       inkscape:connector-curvature="0" /><text
       transform="matrix(1,0,0,-1,129.74687,21.40625)"
       style="font-variant:normal;font-weight:normal;font-size:10px;font-family:'DejaVu Sans';-inkscape-font-specification:DejaVuSans;writing-mode:lr-tb;fill:#000000;fill-opacity:1;fill-rule:nonzero;stroke:none"
       id="text32"><tspan
         x="0 6.3600001 9.54"
         y="0"
         sodipodi:role="line"
         id="tspan30">5.0</tspan></text>
<path
       d="M 179.55,36 V 32.5"
       style="fill:#000000;fill-opacity:1;fill-rule:nonzero;stroke:#000000;stroke-width:0.80000001;stroke-linecap:butt;stroke-linejoin:round;stroke-miterlimit:10;stroke-dasharray:none;stroke-opacity:1"
       id="path34"
       inkscape:connector-curvature="0" /><text
       transform="matrix(1,0,0,-1,171.59687,21.40625)"
       style="font-variant:normal;font-weight:normal;font-size:10px;font-family:'DejaVu Sans';-inkscape-font-specification:DejaVuSans;writing-mode:lr-tb;fill:#000000;fill-opacity:1;fill-rule:nonzero;stroke:none"
       id="text38"><tspan
         x="0 6.3600001 9.54"
         y="0"
         sodipodi:role="line"
         id="tspan36">7.5</tspan></text>
<path
       d="M 221.4,36 V 32.5"
       style="fill:#000000;fill-opacity:1;fill-rule:nonzero;stroke:#000000;stroke-width:0.80000001;stroke-linecap:butt;stroke-linejoin:round;stroke-miterlimit:10;stroke-dasharray:none;stroke-opacity:1"
       id="path40"
       inkscape:connector-curvature="0" /><text
       transform="matrix(1,0,0,-1,210.26719,21.40625)"
       style="font-variant:normal;font-weight:normal;font-size:10px;font-family:'DejaVu Sans';-inkscape-font-specification:DejaVuSans;writing-mode:lr-tb;fill:#000000;fill-opacity:1;fill-rule:nonzero;stroke:none"
       id="text44"><tspan
         x="0 6.3600001 12.72 15.9"
         y="0"
         sodipodi:role="line"
         id="tspan42">10.0</tspan></text>
<path
       d="M 263.25,36 V 32.5"
       style="fill:#000000;fill-opacity:1;fill-rule:nonzero;stroke:#000000;stroke-width:0.80000001;stroke-linecap:butt;stroke-linejoin:round;stroke-miterlimit:10;stroke-dasharray:none;stroke-opacity:1"
       id="path46"
       inkscape:connector-curvature="0" /><text
       transform="matrix(1,0,0,-1,252.11719,21.40625)"
       style="font-variant:normal;font-weight:normal;font-size:10px;font-family:'DejaVu Sans';-inkscape-font-specification:DejaVuSans;writing-mode:lr-tb;fill:#000000;fill-opacity:1;fill-rule:nonzero;stroke:none"
       id="text50"><tspan
         x="0 6.3600001 12.72 15.9"
         y="0"
         sodipodi:role="line"
         id="tspan48">12.5</tspan></text>
<path
       d="M 305.1,36 V 32.5"
       style="fill:#000000;fill-opacity:1;fill-rule:nonzero;stroke:#000000;stroke-width:0.80000001;stroke-linecap:butt;stroke-linejoin:round;stroke-miterlimit:10;stroke-dasharray:none;stroke-opacity:1"
       id="path52"
       inkscape:connector-curvature="0" /><text
       transform="matrix(1,0,0,-1,293.96719,21.40625)"
       style="font-variant:normal;font-weight:normal;font-size:10px;font-family:'DejaVu Sans';-inkscape-font-specification:DejaVuSans;writing-mode:lr-tb;fill:#000000;fill-opacity:1;fill-rule:nonzero;stroke:none"
       id="text56"><tspan
         x="0 6.3600001 12.72 15.9"
         y="0"
         sodipodi:role="line"
         id="tspan54">15.0</tspan></text>
<path
       d="M 346.95,36 V 32.5"
       style="fill:#000000;fill-opacity:1;fill-rule:nonzero;stroke:#000000;stroke-width:0.80000001;stroke-linecap:butt;stroke-linejoin:round;stroke-miterlimit:10;stroke-dasharray:none;stroke-opacity:1"
       id="path58"
       inkscape:connector-curvature="0" /><text
       transform="matrix(1,0,0,-1,335.81719,21.40625)"
       style="font-variant:normal;font-weight:normal;font-size:10px;font-family:'DejaVu Sans';-inkscape-font-specification:DejaVuSans;writing-mode:lr-tb;fill:#000000;fill-opacity:1;fill-rule:nonzero;stroke:none"
       id="text62"><tspan
         x="0 6.3600001 12.72 15.9"
         y="0"
         sodipodi:role="line"
         id="tspan60">17.5</tspan></text>
<path
       d="M 388.8,36 V 32.5"
       style="fill:#000000;fill-opacity:1;fill-rule:nonzero;stroke:#000000;stroke-width:0.80000001;stroke-linecap:butt;stroke-linejoin:round;stroke-miterlimit:10;stroke-dasharray:none;stroke-opacity:1"
       id="path64"
       inkscape:connector-curvature="0" /><text
       transform="matrix(1,0,0,-1,377.66719,21.40625)"
       style="font-variant:normal;font-weight:normal;font-size:10px;font-family:'DejaVu Sans';-inkscape-font-specification:DejaVuSans;writing-mode:lr-tb;fill:#000000;fill-opacity:1;fill-rule:nonzero;stroke:none"
       id="text68"><tspan
         x="0 6.3600001 12.72 15.9"
         y="0"
         sodipodi:role="line"
         id="tspan66">20.0</tspan></text>
<text
       transform="matrix(1,0,0,-1,138.3375,5.453125)"
       style="font-variant:normal;font-weight:normal;font-size:13px;font-family:'DejaVu Sans';-inkscape-font-specification:DejaVuSans;writing-mode:lr-tb;fill:#000000;fill-opacity:1;fill-rule:nonzero;stroke:none"
       id="text72"><tspan
         x="0 8.2550001 11.869 24.531 32.772999 36.387001 44.355999 49.452 57.446999 65.702003 69.835999 74.931999 78.545998 91.208 99.203003 103.337 108.407 121.069 124.683 132.925 141.16701 146.263 154.258 161.03101"
         y="0"
         sodipodi:role="line"
         id="tspan70">Simulated time (minutes)</tspan></text>
<path
       d="M 54,45.883636 H 50.5"
       style="fill:#000000;fill-opacity:1;fill-rule:nonzero;stroke:#000000;stroke-width:0.80000001;stroke-linecap:butt;stroke-linejoin:round;stroke-miterlimit:10;stroke-dasharray:none;stroke-opacity:1"
       id="path74"
       inkscape:connector-curvature="0" /><text
       transform="matrix(1,0,0,-1,40.640625,42.086761)"
       style="font-variant:normal;font-weight:normal;font-size:10px;font-family:'DejaVu Sans';-inkscape-font-specification:DejaVuSans;writing-mode:lr-tb;fill:#000000;fill-opacity:1;fill-rule:nonzero;stroke:none"
       id="text78"><tspan
         x="0"
         y="0"
         id="tspan76">0</tspan></text>
<path
       d="M 54,77.62848 H 50.5"
       style="fill:#000000;fill-opacity:1;fill-rule:nonzero;stroke:#000000;stroke-width:0.80000001;stroke-linecap:butt;stroke-linejoin:round;stroke-miterlimit:10;stroke-dasharray:none;stroke-opacity:1"
       id="path80"
       inkscape:connector-curvature="0" /><text
       transform="matrix(1,0,0,-1,34.28125,73.831605)"
       style="font-variant:normal;font-weight:normal;font-size:10px;font-family:'DejaVu Sans';-inkscape-font-specification:DejaVuSans;writing-mode:lr-tb;fill:#000000;fill-opacity:1;fill-rule:nonzero;stroke:none"
       id="text84"><tspan
         x="0 6.3600001"
         y="0"
         sodipodi:role="line"
         id="tspan82">20</tspan></text>
<path
       d="M 54,109.37332 H 50.5"
       style="fill:#000000;fill-opacity:1;fill-rule:nonzero;stroke:#000000;stroke-width:0.80000001;stroke-linecap:butt;stroke-linejoin:round;stroke-miterlimit:10;stroke-dasharray:none;stroke-opacity:1"
       id="path86"
       inkscape:connector-curvature="0" /><text
       transform="matrix(1,0,0,-1,34.28125,105.57645)"
       style="font-variant:normal;font-weight:normal;font-size:10px;font-family:'DejaVu Sans';-inkscape-font-specification:DejaVuSans;writing-mode:lr-tb;fill:#000000;fill-opacity:1;fill-rule:nonzero;stroke:none"
       id="text90"><tspan
         x="0 6.3600001"
         y="0"
         sodipodi:role="line"
         id="tspan88">40</tspan></text>
<path
       d="M 54,141.11817 H 50.5"
       style="fill:#000000;fill-opacity:1;fill-rule:nonzero;stroke:#000000;stroke-width:0.80000001;stroke-linecap:butt;stroke-linejoin:round;stroke-miterlimit:10;stroke-dasharray:none;stroke-opacity:1"
       id="path92"
       inkscape:connector-curvature="0" /><text
       transform="matrix(1,0,0,-1,34.28125,137.32129)"
       style="font-variant:normal;font-weight:normal;font-size:10px;font-family:'DejaVu Sans';-inkscape-font-specification:DejaVuSans;writing-mode:lr-tb;fill:#000000;fill-opacity:1;fill-rule:nonzero;stroke:none"
       id="text96"><tspan
         x="0 6.3600001"
         y="0"
         sodipodi:role="line"
         id="tspan94">60</tspan></text>
<path
       d="M 54,172.86301 H 50.5"
       style="fill:#000000;fill-opacity:1;fill-rule:nonzero;stroke:#000000;stroke-width:0.80000001;stroke-linecap:butt;stroke-linejoin:round;stroke-miterlimit:10;stroke-dasharray:none;stroke-opacity:1"
       id="path98"
       inkscape:connector-curvature="0" /><text
       transform="matrix(1,0,0,-1,34.28125,169.06614)"
       style="font-variant:normal;font-weight:normal;font-size:10px;font-family:'DejaVu Sans';-inkscape-font-specification:DejaVuSans;writing-mode:lr-tb;fill:#000000;fill-opacity:1;fill-rule:nonzero;stroke:none"
       id="text102"><tspan
         x="0 6.3600001"
         y="0"
         sodipodi:role="line"
         id="tspan100">80</tspan></text>
<path
       d="M 54,204.60785 H 50.5"
       style="fill:#000000;fill-opacity:1;fill-rule:nonzero;stroke:#000000;stroke-width:0.80000001;stroke-linecap:butt;stroke-linejoin:round;stroke-miterlimit:10;stroke-dasharray:none;stroke-opacity:1"
       id="path104"
       inkscape:connector-curvature="0" /><text
       transform="matrix(1,0,0,-1,27.921875,200.81098)"
       style="font-variant:normal;font-weight:normal;font-size:10px;font-family:'DejaVu Sans';-inkscape-font-specification:DejaVuSans;writing-mode:lr-tb;fill:#000000;fill-opacity:1;fill-rule:nonzero;stroke:none"
       id="text108"><tspan
         x="0 6.3600001 12.72"
         y="0"
         sodipodi:role="line"
         id="tspan106">100</tspan></text>
<path
       d="M 54,236.3527 H 50.5"
       style="fill:#000000;fill-opacity:1;fill-rule:nonzero;stroke:#000000;stroke-width:0.80000001;stroke-linecap:butt;stroke-linejoin:round;stroke-miterlimit:10;stroke-dasharray:none;stroke-opacity:1"
       id="path110"
       inkscape:connector-curvature="0" /><text
       transform="matrix(1,0,0,-1,27.921875,232.55582)"
       style="font-variant:normal;font-weight:normal;font-size:10px;font-family:'DejaVu Sans';-inkscape-font-specification:DejaVuSans;writing-mode:lr-tb;fill:#000000;fill-opacity:1;fill-rule:nonzero;stroke:none"
       id="text114"><tspan
         x="0 6.3600001 12.72"
         y="0"
         sodipodi:role="line"
         id="tspan112">120</tspan></text>
<text
       transform="matrix(0,1,1,0,21.21875,47.81375)"
       style="font-variant:normal;font-weight:normal;font-size:13px;font-family:'DejaVu Sans';-inkscape-font-specification:DejaVuSans;writing-mode:lr-tb;fill:#000000;fill-opacity:1;fill-rule:nonzero;stroke:none"
       id="text118"><tspan
         x="0 8.2159996 12.35 20.306 24.882 29.016001 33.591999 41.587002 49.582001 57.837002 66.092003 74.060997 81.210999 88.737999 92.872002 100.841 109.096 112.71 120.952 127.725 132.821 145.483 153.478 161.72 166.81599 170.95 176.02 188.68201"
         y="0"
         sodipodi:role="line"
         id="tspan116">E of feedback adjustment (m)</tspan></text>
<g
       id="g120"
       style="stroke:#ffffff;stroke-opacity:1"><g
         id="g122"
         clip-path="url(#clipPath126)"
         style="stroke:#ffffff;stroke-opacity:1"><path
           d="M 221.4,36 V 253.44"
           style="fill:none;stroke:#ffffff;stroke-width:1.5;stroke-linecap:butt;stroke-linejoin:round;stroke-miterlimit:10;stroke-dasharray:5.55, 2.39999999999999991;stroke-dashoffset:0;stroke-opacity:1"
           id="path128"
           inkscape:connector-curvature="0" /></g></g><g
       id="g130"><g
         id="g132"
         clip-path="url(#clipPath136)"><path
           d="M 54.670942,45.883636 H 388.8 v 0"
           style="fill:none;stroke:#1f77b4;stroke-width:1.5;stroke-linecap:square;stroke-linejoin:round;stroke-miterlimit:10;stroke-dasharray:none;stroke-opacity:1"
           id="path138"
           inkscape:connector-curvature="0" /></g></g><g
       id="g140"><g
         id="g142"
         clip-path="url(#clipPath146)"><path
           d="m 54.670942,45.883636 0.670942,0.130264 0.670942,1.552772 0.670942,-0.531032 4.025651,1.077904 2.012825,0.521143 1.341884,0.374898 2.012826,0.523973 2.012826,0.583625 4.696593,1.197785 2.012825,0.592755 2.683768,0.683325 1.341884,0.378701 2.012825,0.529475 1.341884,0.372986 2.012826,0.525821 1.341884,0.37276 2.012825,0.519578 1.341884,0.369812 2.012826,0.513042 1.341883,0.360543 2.012826,0.509249 2.012826,0.565763 4.696591,1.167861 2.01283,0.584382 2.68377,0.650135 1.34188,0.355341 2.01282,0.490349 1.34189,0.351154 2.01282,0.490648 1.34189,0.341804 2.01282,0.486117 1.34189,0.342916 2.01282,0.474966 1.34189,0.337144 2.01282,0.468511 2.01283,0.532933 2.68377,0.57383 1.34188,0.319233 2.01283,0.435964 1.34188,0.321133 2.01282,0.436308 1.34189,0.307157 2.01282,0.4207 1.34189,0.300581 2.01282,0.418902 1.34189,0.291319 2.01282,0.405326 1.34189,0.293665 4.02565,0.805668 3.35471,0.735941 4.69659,0.904051 2.01283,0.45676 2.68376,0.49757 1.34189,0.281377 2.68376,0.554227 4.6966,0.893048 2.01282,0.427452 4.6966,0.864804 2.68376,0.529862 2.68377,0.526439 4.02565,0.735802 2.68377,0.514341 4.02565,0.706106 2.68377,0.483946 2.68377,0.434891 2.68376,0.515317 4.02566,0.706509 3.3547,0.636677 4.6966,0.778185 2.68377,0.480665 4.02565,0.667865 1.34188,0.230109 0.67094,-8.389713 0.67094,-1.540952 0.67095,0.725767 0.67094,0.448924 1.34188,-0.425568 1.34189,0.344467 3.3547,0.559644 2.68377,0.517309 3.35471,0.612141 2.68377,0.522081 4.02565,0.703953 2.68377,0.49256 4.02565,0.680139 2.68377,0.467441 4.02565,0.63644 2.68377,0.443787 4.02565,0.624382 2.68376,0.448255 4.02566,0.617361 2.68376,0.419985 4.02565,0.583475 2.68377,0.406442 5.36754,0.755886 2.68377,0.392578 4.02565,0.549434 2.68376,0.386527 5.36754,0.713599 2.68377,0.381359 6.03847,0.780516 4.02566,0.547756 6.03847,0.755753 3.35471,0.468997 6.03848,0.747728 4.02565,0.533626 6.03848,0.734426 4.02565,0.508768 6.03847,0.682311 4.02566,0.471968 6.03847,0.659902 4.02565,0.464912 7.38037,0.79188 4.02565,0.449015 6.03847,0.605711 4.02565,0.426923 5.36754,0.533808 v 0"
           style="fill:none;stroke:#ff7f0e;stroke-width:1.5;stroke-linecap:square;stroke-linejoin:round;stroke-miterlimit:10;stroke-dasharray:none;stroke-opacity:1"
           id="path148"
           inkscape:connector-curvature="0" /></g></g><g
       id="g150"><g
         id="g152"
         clip-path="url(#clipPath156)"><path
           d="m 54.670942,45.883636 0.670942,1.293721 0.670942,2.219388 0.670942,1.227799 0.670941,1.609793 0.670942,1.24409 0.670942,1.809913 0.670942,1.283691 0.670942,1.867707 1.341884,2.582933 0.670942,1.881098 0.670941,1.213684 0.670942,1.808564 1.341884,2.324042 0.670942,1.71051 0.670942,1.101322 0.670942,1.650684 0.670942,1.102366 0.670942,1.542489 1.341883,2.17436 0.670942,1.550777 0.670942,1.038263 0.670942,1.508317 1.341884,1.942065 0.670942,1.399955 0.670942,0.936082 0.670941,1.312633 1.341884,1.665099 0.670942,1.183231 0.670942,0.826277 0.670942,1.198605 1.341884,1.588145 0.670941,1.077197 0.670942,0.712268 0.670942,1.114421 1.341884,1.368852 0.670942,1.046274 0.670942,0.674044 0.670942,0.969175 2.683767,2.78682 0.670942,0.88277 1.341884,1.12339 0.670942,0.82206 0.670942,0.55027 0.670941,0.71679 1.341884,0.92931 0.670942,0.67721 0.670942,0.39795 0.670942,0.62975 0.670942,0.45112 0.670942,0.68842 3.354709,2.49179 2.012822,1.27794 4.6966,2.6722 1.34188,0.53377 0.67094,0.38165 2.68377,0.94487 2.01283,0.75757 1.34188,0.4824 0.67094,0.40544 1.34189,0.36718 2.68376,0.81773 0.67094,0.31228 1.34189,0.33493 0.67094,0.29188 4.02565,1.01837 1.34189,0.39957 3.35471,0.65981 0.67094,0.29839 4.02565,0.58666 3.35471,0.30423 2.01282,0.22677 2.01283,-0.0607 1.34188,0.0357 1.34189,0.15734 1.34188,0.0962 3.35471,-0.18942 2.68377,-0.06 3.35471,-0.12543 1.34188,0.20576 0.67094,0.14646 1.34189,-0.004 1.34188,-0.022 1.34188,0.1302 3.35471,-0.0759 5.36754,-0.25481 2.01282,0.0944 1.34189,0.007 1.34188,-0.22056 0.67094,-0.0788 1.34189,0.16562 1.34188,0.17243 2.68377,-0.23471 5.36753,-0.11716 2.68377,0.86037 2.01283,0.16246 4.69659,-0.0185 1.34188,-0.17266 1.34189,0.0343 0.67094,0.10344 4.69659,-0.27001 5.36754,-0.36171 2.68376,-0.008 1.34189,0.0606 8.0513,0.27503 0.67094,-20.87899 0.67094,-3.90069 0.67095,1.70999 0.67094,1.14135 0.67094,-0.63312 0.67094,0.0642 0.67094,0.72877 3.35471,2.16941 0.67094,0.3615 0.67095,0.56673 0.67094,0.3748 0.67094,0.52974 1.34189,0.66223 0.67094,0.4643 2.01282,0.95645 1.34189,0.61693 0.67094,0.25363 0.67094,0.38699 2.68377,1.01045 1.34188,0.5756 1.34188,0.52028 2.01283,0.72773 1.34188,0.45126 6.03848,1.92462 2.68377,0.49421 2.01282,0.45081 2.01283,0.39105 2.68377,0.51942 6.03847,1.29344 5.36754,0.74412 4.02565,0.18255 8.0513,0.13586 2.68377,0.0586 2.01283,0.0989 3.35471,0.0892 2.68376,0.0532 15.43167,0.48922 21.47014,0.0895 4.69659,-0.01 12.07695,-0.37628 2.01283,-0.0956 2.68377,-0.10792 6.03847,-0.15559 6.70942,-0.0603 13.41884,0.20171 3.35471,0.13539 3.35471,-0.036 v 0"
           style="fill:none;stroke:#2ca02c;stroke-width:1.5;stroke-linecap:square;stroke-linejoin:round;stroke-miterlimit:10;stroke-dasharray:none;stroke-opacity:1"
           id="path158"
           inkscape:connector-curvature="0" /></g></g><g
       id="g160"><g
         id="g162"
         clip-path="url(#clipPath166)"><path
           d="m 54.670942,45.883636 0.670942,12.06764 0.670942,6.830205 0.670942,12.009014 0.670941,8.357088 1.341884,13.696057 1.341884,8.14912 0.670942,2.08952 1.341884,5.74903 0.670941,1.83168 0.670942,2.30831 0.670942,0.77333 0.670942,1.45616 0.670942,0.51696 1.341884,1.64486 0.670942,0.3517 0.670942,0.58817 0.670941,0.99868 0.670942,0.0269 0.670942,0.25564 0.670942,0.0635 0.670942,1.38148 1.341884,0.0433 0.670942,1.3129 0.670942,0.53145 0.670941,-0.31816 0.670942,0.22015 0.670942,-0.0396 0.670942,0.13902 0.670942,-0.18468 0.670942,0.85943 1.341884,0.2858 0.670941,-0.89306 0.670942,0.13463 1.341884,0.87492 0.670942,-0.0161 0.670942,-0.75047 0.670942,0.43427 0.670942,-0.46448 0.670942,0.41063 1.341883,1.80376 0.670942,-0.3532 0.670942,0.1046 0.670942,-0.0572 1.341884,0.99772 0.670942,-0.1388 0.670941,-0.59928 0.670942,-0.354 0.670942,0.25239 0.670942,-0.8192 0.670942,-0.46156 0.670942,-0.2824 0.670942,-0.14276 0.670942,-0.94957 0.670942,0.46709 0.670941,-0.35129 0.670942,-0.0378 0.670942,0.33664 0.670942,-0.19987 0.670942,-0.39251 0.67094,0.0271 0.67094,-0.87902 0.67095,0.90596 0.67094,1.34035 1.34188,1.78378 0.67094,0.26532 0.67095,1.01371 0.67094,0.35681 0.67094,-0.041 0.67094,0.11143 0.67094,-0.0691 0.67094,-0.5593 0.67095,1.04263 0.67094,0.57143 0.67094,0.84367 0.67094,-1.08291 0.67094,0.37137 0.67095,-1.40697 0.67094,-0.0524 0.67094,-0.46295 0.67094,0.0875 0.67094,0.8309 1.34189,-1.70404 0.67094,-0.49661 0.67094,-0.28882 0.67094,-0.081 0.67094,0.3555 0.67095,-0.0559 0.67094,-0.99185 0.67094,-0.19423 0.67094,-0.4035 0.67094,0.2383 0.67095,-0.44788 0.67094,0.49619 0.67094,0.71298 2.01283,-1.08134 0.67094,0.32652 0.67094,0.16653 0.67094,0.80045 0.67094,0.0733 0.67095,-0.40199 0.67094,0.24195 0.67094,0.60904 0.67094,0.0854 0.67094,2.17708 0.67094,0.15482 0.67095,-1.89553 0.67094,0.79099 0.67094,0.6064 0.67094,-1.77272 0.67094,0.27826 0.67094,2.43874 0.67095,0.48754 0.67094,-1.06602 0.67094,-1.33508 0.67094,1.05491 0.67095,-0.6523 0.67094,-0.24097 1.34188,-1.21769 0.67094,-0.0475 0.67094,-1.73821 0.67095,1.65477 0.67094,-0.14986 0.67094,-0.62809 0.67094,-0.91104 0.67094,0.74531 0.67095,0.22763 0.67094,-0.39255 0.67094,1.80786 0.67094,0.20886 0.67094,1.56018 0.67094,-0.0839 0.67095,-0.38594 0.67094,-0.64984 0.67094,0.80454 0.67094,-1.49172 0.67094,2.80815 0.67095,0.44611 0.67094,2.65956 0.67094,-0.92949 0.67094,-0.13727 0.67094,-0.82122 0.67095,-1.52884 0.67094,-1.01354 0.67094,-0.4521 0.67094,-0.89553 0.67094,0.45187 1.34189,1.84 0.67094,-0.85188 0.67094,-0.32619 0.67094,0.80504 0.67094,-0.91005 0.67095,1.30112 0.67094,0.31629 0.67094,1.49279 0.67094,-0.44849 1.34189,-1.85853 0.67094,-0.35147 1.34188,1.16969 0.67094,0.94409 0.67094,1.87171 0.67095,0.28424 0.67094,2.26592 0.67094,-1.22182 0.67094,1.95921 0.67094,-0.18634 0.67095,0.74284 0.67094,1.058 0.67094,-0.45504 0.67094,-1.93133 0.67094,-0.58324 0.67095,2.59949 0.67094,-0.92753 0.67094,2.04105 0.67094,1.53139 0.67094,0.18803 0.67094,-1.09868 0.67095,1.53812 0.67094,1.17844 0.67094,2.11976 0.67094,-2.67688 0.67094,-1.42221 1.34189,5.06319 1.34188,-4.68015 0.67094,0.42384 0.67095,0.28371 0.67094,-0.646 0.67094,-1.1946 0.67094,-0.60591 0.67094,-1.91938 0.67095,0.82315 0.67094,-1.35269 0.67094,2.96625 0.67094,-1.15439 0.67094,-0.75513 0.67094,1.02614 0.67095,-2.2613 0.67094,-1.3508 0.67094,-0.77025 0.67094,-2.45072 0.67094,-1.80917 0.67095,0.43307 0.67094,-1.09029 0.67094,0.0599 0.67094,-0.24816 0.67094,-0.6534 0.67095,-0.35061 0.67094,-1.0433 0.67094,-0.0136 0.67094,0.75264 0.67094,-0.52284 0.67094,0.69668 0.67095,0.14549 0.67094,0.67623 0.67094,1.08595 0.67094,-1.2313 0.67094,-0.53152 0.67095,-0.72408 0.67094,-0.12684 0.67094,-0.32685 0.67094,-0.63235 0.67094,-0.9688 0.67095,-0.0778 0.67094,0.1753 0.67094,-1.14645 1.34188,-1.09974 0.67094,-0.29805 1.34189,0.4964 0.67094,0.20931 0.67094,-23.01814 0.67094,-1.34814 0.67095,3.88084 0.67094,7.03149 3.35471,10.01013 0.67094,0.73456 0.67094,1.82655 0.67094,0.31912 0.67094,0.11153 0.67095,-0.0151 0.67094,-0.36811 0.67094,-0.0833 0.67094,0.1326 0.67095,0.77381 0.67094,0.20639 1.34188,-0.48732 1.34188,0.47437 0.67095,0.53035 1.34188,0.76461 0.67094,0.74217 0.67094,-0.6545 0.67095,-0.20116 0.67094,0.34716 0.67094,-0.40021 0.67094,0.11655 0.67094,0.62122 0.67094,0.0991 0.67095,-0.51203 0.67094,-0.0605 0.67094,0.0863 0.67094,-0.72555 0.67094,0.64337 0.67095,-0.43469 0.67094,0.20198 0.67094,0.44519 0.67094,-0.43712 0.67094,-0.87323 0.67095,-0.14457 0.67094,-0.5813 0.67094,0.44921 0.67094,0.88157 0.67094,0.43357 0.67094,0.70975 0.67095,-1.00736 0.67094,-0.33905 1.34188,-0.0314 0.67094,0.43499 0.67095,0.30244 0.67094,-0.26101 0.67094,-0.0755 0.67094,0.14963 0.67094,-0.0558 0.67095,-0.25737 0.67094,-0.52658 0.67094,-0.96336 0.67094,0.37247 0.67094,0.55194 0.67094,-0.18278 0.67095,0.0769 0.67094,0.33222 0.67094,-0.0329 0.67094,0.52334 0.67094,0.0421 0.67095,-0.0927 0.67094,-0.45726 0.67094,0.3614 0.67094,-0.65336 0.67094,-0.36182 0.67095,-0.18395 0.67094,0.2001 0.67094,0.0686 0.67094,0.31706 0.67094,-0.0135 0.67094,0.74526 0.67095,-0.2324 0.67094,0.24933 0.67094,-0.591 0.67094,-0.28327 1.34189,-0.0801 0.67094,-0.32158 1.34188,-0.25451 1.34189,0.36133 0.67094,0.82827 0.67094,0.61599 1.34188,0.14741 2.68377,-1.41142 0.67094,0.0643 0.67095,-0.15389 0.67094,0.76131 0.67094,-0.36499 1.34188,0.98229 0.67094,-0.43368 0.67095,-0.24928 0.67094,0.21629 0.67094,-0.15317 1.34188,-0.97215 1.34189,-0.68685 0.67094,-0.59131 0.67094,0.72999 0.67094,0.15847 0.67094,-0.14431 1.34189,-1.13727 0.67094,0.39105 0.67094,0.21469 0.67094,0.0889 0.67095,-0.3399 0.67094,-0.21419 1.34188,-0.75369 0.67094,-0.14107 0.67095,0.44348 0.67094,0.19065 0.67094,0.45289 0.67094,0.29286 0.67094,0.006 0.67095,0.24477 2.01282,-0.7992 1.34188,-1.08266 0.67095,0.18887 0.67094,-0.5281 1.34188,0.0267 0.67094,0.35951 0.67095,0.0792 0.67094,-0.0697 1.34188,0.60662 1.34189,0.19713 0.67094,-0.26852 0.67094,0.21538 0.67094,-0.10624 0.67094,0.19126 0.67094,-0.14522 0.67095,0.28288 0.67094,0.0774 0.67094,-0.47178 0.67094,-0.25703 0.67094,0.15916 0.67095,-0.12688 0.67094,-0.008 0.67094,0.3456 0.67094,0.11232 0.67094,-0.1257 0.67095,0.0827 0.67094,0.3094 0.67094,0.0177 0.67094,-0.13967 0.67094,0.19563 1.34189,-0.50422 0.67094,-0.0798 0.67094,0.27456 1.34188,0.033 1.34189,-0.9238 0.67094,-0.20652 1.34188,-0.0706 0.67095,0.39483 0.67094,0.25608 0.67094,-0.29089 0.67094,0.005 0.67094,-0.30015 0.67094,0.14382 1.34189,-0.0845 0.67094,-0.26752 1.34188,0.0454 0.67095,-0.17798 3.35471,0.75869 0.67094,0.0262 0.67094,0.46922 1.34188,0.30257 0.67094,-0.0312 0.67095,0.26825 0.67094,-0.0936 0.67094,0.15256 1.34188,-0.17328 0.67095,-0.47864 0.67094,-0.80376 1.34188,0.0983 0.67094,0.31923 0.67095,0.10741 0.67094,-0.17829 0.67094,0.0316 0.67094,0.30196 0.67094,-0.0992 1.34189,0.0251 0.67094,0.75877 0.67094,0.10665 1.34188,-0.29248 0.67095,-0.2096 0.67094,-0.45309 1.34188,-0.52411 0.67094,-0.0308 0.67095,0.49047 0.67094,0.0486 0.67094,0.5405 1.34188,0.13307 0.67095,-0.10398 0.67094,-0.23751 0.67094,0.51931 0.67094,0.0671 0.67094,0.44351 1.34189,0.34823 0.67094,-0.0834 0.67094,0.26174 2.01283,-0.54331 0.67094,-0.47253 0.67094,-0.24516 v 0"
           style="fill:none;stroke:#d62728;stroke-width:1.5;stroke-linecap:square;stroke-linejoin:round;stroke-miterlimit:10;stroke-dasharray:none;stroke-opacity:1"
           id="path168"
           inkscape:connector-curvature="0" /></g></g><g
       id="g170"><g
         id="g172"
         clip-path="url(#clipPath176)"><path
           d="m 54.670942,45.883636 0.670942,49.493874 0.670942,4.98271 0.670942,0.90027 0.670941,10.17161 0.670942,5.66023 0.670942,6.64823 0.670942,0.30297 0.670942,6.34915 0.670942,-6.24687 0.670942,19.55316 0.670942,-8.57854 0.670941,-5.45881 0.670942,25.13338 0.670942,-34.49959 0.670942,29.37827 0.670942,9.20211 0.670942,-39.45662 0.670942,11.27592 0.670942,7.96072 0.670942,-8.7458 0.670941,31.43074 0.670942,-28.6125 0.670942,7.74741 0.670942,1.73316 0.670942,-15.03926 0.670942,39.2253 0.670942,-36.39908 0.670942,4.47676 0.670942,-5.29285 0.670941,-7.89332 0.670942,46.06956 0.670942,-31.07152 0.670942,-7.19457 0.670942,11.59411 0.670942,-15.29897 0.670942,36.8385 0.670942,-28.84214 0.670941,1.53711 0.670942,18.64128 0.670942,-33.14143 0.670942,48.94015 0.670942,-24.35386 0.670942,-0.055 0.670942,6.29179 0.670942,-24.42849 0.670942,34.24266 0.670941,-29.38403 0.670942,-16.04247 0.670942,51.35053 0.670942,-37.25675 0.670942,21.83024 1.341884,-29.43953 0.670942,47.42865 0.670941,-2.64578 0.670942,-15.46178 0.670942,-0.90333 0.670942,10.1732 1.341884,-37.33249 0.670942,49.75401 0.670942,-8.47179 0.670942,-20.08131 0.670941,16.38034 0.670942,-22.08977 0.670942,38.26293 0.670942,-12.67863 0.670942,-22.61885 0.67094,29.16961 0.67094,3.09986 0.67095,-23.43772 0.67094,5.31698 0.67094,11.06949 0.67094,-9.45681 0.67094,16.92427 0.67095,6.12768 0.67094,-22.22881 0.67094,-7.99506 0.67094,-11.8852 0.67094,-0.87456 0.67094,22.2342 0.67095,-1.76137 0.67094,8.72185 1.34188,-32.57987 0.67094,30.64677 0.67095,-13.11377 0.67094,38.69306 0.67094,-63.7015 0.67094,4.18456 0.67094,56.03169 0.67095,-4.83895 0.67094,-13.78933 0.67094,2.65765 0.67094,-9.39888 0.67094,-14.80405 0.67094,-3.55747 0.67095,33.40913 0.67094,-11.62492 0.67094,-15.63517 0.67094,23.63839 0.67094,9.9406 0.67095,-14.05425 0.67094,-21.13798 0.67094,17.77359 0.67094,-20.15835 0.67094,8.30416 0.67095,51.64849 0.67094,-3.54503 0.67094,-46.47538 0.67094,14.54229 0.67094,11.5761 0.67095,28.26127 0.67094,-4.02046 0.67094,-46.34561 0.67094,24.28926 0.67094,-43.2142 0.67094,72.80485 0.67095,-4.46136 0.67094,-87.69188 0.67094,77.6904 0.67094,-45.146 0.67094,56.85205 0.67094,5.88969 0.67095,-54.9752 0.67094,-0.32933 0.67094,7.75725 0.67094,60.87176 0.67095,13.83889 0.67094,-110.61203 0.67094,80.15072 0.67094,0.51646 0.67094,-41.18884 0.67094,24.71326 0.67095,-3.93766 0.67094,-28.46268 0.67094,-4.1829 0.67094,73.97941 0.67094,4.43129 0.67095,-103.04154 0.67094,53.19842 0.67094,1.27796 1.34188,22.81099 0.67094,-60.74459 0.67095,15.44136 0.67094,23.34007 0.67094,11.4404 0.67094,20.46372 0.67094,-97.67015 0.67095,11.42777 1.34188,84.27922 0.67094,-35.11611 0.67094,-41.45747 1.34189,30.79881 0.67094,39.26949 0.67094,-8.80131 0.67094,-6.27898 1.34189,-40.04287 0.67094,65.93088 0.67094,-4.5254 0.67094,-72.71129 0.67094,-4.89891 0.67095,19.43434 0.67094,53.37793 0.67094,-5.74953 0.67094,-77.56026 0.67094,14.55844 0.67095,8.80873 0.67094,38.68564 0.67094,-2.8587 0.67094,-26.21772 0.67094,-21.44986 0.67094,44.51686 0.67095,2.96136 0.67094,14.72553 0.67094,-66.06548 0.67094,17.57551 2.01283,66.20971 0.67094,-85.04332 0.67094,-15.00064 0.67094,66.72729 0.67095,-10.49362 0.67094,24.1801 0.67094,-43.28567 0.67094,-21.75729 0.67094,55.7317 0.67094,13.01742 0.67095,-23.94025 0.67094,-35.98232 0.67094,-15.11908 0.67094,38.28168 0.67094,5.6361 0.67095,12.46143 0.67094,4.54676 0.67094,-36.10577 0.67094,-5.25944 0.67094,26.27081 0.67095,21.46843 0.67094,-57.72902 0.67094,-8.26202 0.67094,47.47562 0.67094,17.68411 0.67095,-36.88157 0.67094,13.07869 0.67094,-22.65598 0.67094,9.34134 0.67094,6.68313 0.67094,33.57156 0.67095,-56.02352 0.67094,10.38762 0.67094,23.7288 0.67094,-4.28741 0.67094,25.22267 0.67095,-64.46449 0.67094,4.35145 0.67094,53.15461 0.67094,-6.46203 0.67094,-4.58722 0.67095,-18.11145 0.67094,-13.02281 0.67094,55.81746 0.67094,-6.26098 0.67094,-30.09727 0.67094,8.87798 0.67095,-5.98177 0.67094,-8.84084 0.67094,-2.10296 1.34188,60.95103 0.67095,-67.28032 0.67094,25.51468 0.67094,-1.64033 0.67094,24.34959 0.67094,16.84166 0.67095,-61.86996 0.67094,18.43411 0.67094,-6.37812 0.67094,27.58367 0.67094,14.25195 0.67094,-70.5777 0.67095,19.61683 0.67094,13.17522 0.67094,25.27725 0.67094,-46.52822 0.67094,-34.70859 0.67095,30.73634 1.34188,21.82537 0.67094,-7.11952 0.67094,-17.28087 0.67095,5.78225 1.34188,8.96177 0.67094,15.023 0.67094,-36.68529 0.67094,20.33708 0.67095,7.68829 0.67094,-6.42112 0.67094,9.3934 0.67094,-24.46658 0.67095,27.50204 0.67094,-7.32294 0.67094,-0.53182 0.67094,5.13633 0.67094,-16.53775 0.67094,-5.70202 0.67095,18.61175 0.67094,0.29034 0.67094,8.64822 0.67094,-23.84269 0.67094,4.83364 0.67095,13.59529 0.67094,0.0466 0.67094,2.07036 0.67094,-13.48772 0.67094,5.02715 0.67094,4.03274 0.67095,-4.003 0.67094,7.9678 0.67094,-20.05144 0.67094,4.90566 0.67094,18.28769 0.67095,-15.36662 0.67094,7.65014 0.67094,-8.63939 0.67094,-2.71041 0.67094,25.36913 0.67095,-14.77164 0.67094,-2.45808 0.67094,2.75259 0.67094,-9.35825 0.67094,23.58535 0.67094,-22.35063 0.67095,5.40097 0.67094,1.26377 0.67094,-13.86822 0.67094,35.04719 0.67094,-20.27742 0.67095,9.45322 0.67094,-21.73749 0.67094,-6.67446 0.67094,34.16407 0.67094,-27.4287 0.67095,1.7551 0.67094,13.76389 0.67094,-5.09306 0.67094,3.62152 0.67094,-11.74199 0.67094,7.98719 0.67095,-5.04663 0.67094,18.92573 0.67094,-0.17101 1.34188,-18.02977 1.34189,6.66948 0.67094,8.02591 0.67094,-1.47962 0.67094,-7.09812 0.67095,-1.82444 0.67094,12.70009 0.67094,-3.9368 0.67094,-11.247 0.67094,14.06292 0.67094,-10.89664 0.67095,-0.65913 0.67094,16.12114 0.67094,-4.12357 0.67094,-14.91433 0.67094,-3.5639 0.67095,2.45513 0.67094,17.50924 0.67094,-3.19819 0.67094,-10.4771 0.67094,0.25958 0.67095,0.62762 0.67094,12.36772 0.67094,-2.74198 2.01283,-20.82815 0.67094,36.20098 0.67094,-5.95584 0.67094,-10.91038 0.67094,-13.56122 0.67095,-10.14524 0.67094,35.37612 0.67094,-7.95806 0.67094,-10.30392 0.67094,3.87381 0.67094,-17.10543 0.67095,28.70144 1.34188,-9.54094 0.67094,13.55022 0.67094,-34.09398 0.67095,18.57008 0.67094,10.82093 0.67094,-25.35977 0.67094,11.27081 0.67094,4.21539 0.67094,-13.78347 0.67095,30.77075 0.67094,-25.18178 0.67094,6.93134 0.67094,-4.47493 0.67094,4.47188 0.67095,6.94328 0.67094,-12.87885 0.67094,11.32848 0.67094,-11.91325 0.67094,14.32461 0.67095,-1.96849 0.67094,2.07355 0.67094,-1.18491 0.67094,-15.08184 0.67094,17.26623 0.67095,-2.92123 0.67094,-2.02568 0.67094,6.64452 0.67094,-29.15139 0.67094,17.98774 0.67094,7.63779 0.67095,-7.8509 0.67094,0.81759 0.67094,-10.07986 0.67094,4.32001 0.67094,13.59888 0.67095,-17.73155 0.67094,-2.44803 0.67094,14.06765 0.67094,-4.19664 0.67094,-16.91821 0.67095,32.39014 0.67094,-6.99283 0.67094,-21.87369 0.67094,11.24595 0.67094,7.63529 0.67094,-4.77317 0.67095,11.41874 0.67094,-33.90496 0.67094,14.66199 0.67094,1.05982 0.67094,-4.63178 0.67095,22.15842 0.67094,-24.495 0.67094,-8.81391 0.67094,28.13434 0.67094,0.74722 0.67095,-5.78973 0.67094,-13.91539 0.67094,-0.8505 0.67094,13.68746 0.67094,4.16945 0.67094,-5.83829 0.67095,-3.55412 2.01282,5.81983 0.67094,2.97022 0.67095,-17.92554 0.67094,3.77356 0.67094,10.1177 0.67094,14.20792 0.67094,-8.32207 0.67095,-21.60783 0.67094,-0.90415 0.67094,25.14199 0.67094,0.79982 0.67094,-0.53295 0.67094,-26.98943 0.67095,-4.43031 0.67094,46.95605 0.67094,-2.84033 0.67094,-17.64084 0.67094,-3.7992 0.67095,-2.58638 0.67094,-3.8756 0.67094,8.53818 0.67094,27.13317 0.67094,-48.4464 0.67095,16.42746 0.67094,5.72261 0.67094,16.16494 0.67094,-22.56154 0.67094,6.8251 0.67094,3.57419 0.67095,-7.76722 0.67094,2.97776 0.67094,13.6779 0.67094,-39.60192 0.67094,6.49157 0.67095,40.83663 0.67094,-4.7397 0.67094,-27.07382 0.67094,-0.58163 0.67094,1.60927 0.67095,14.61889 0.67094,-2.53602 0.67094,-5.54595 0.67094,-8.04807 0.67094,9.16659 0.67095,-4.19698 0.67094,-0.81148 0.67094,16.66037 0.67094,-29.82969 0.67094,9.66943 0.67094,2.12622 0.67095,1.00791 0.67094,13.36456 0.67094,-18.94379 0.67094,2.64868 0.67094,8.44515 0.67095,1.38593 0.67094,-1.83177 0.67094,9.38926 0.67094,-21.33249 0.67094,20.43696 1.34189,6.92976 0.67094,-18.77353 0.67094,-3.22515 0.67094,10.37451 0.67094,-2.61079 0.67095,8.36703 0.67094,-13.97224 0.67094,2.92693 0.67094,-5.06013 0.67094,0.31805 0.67095,19.76086 0.67094,-9.13657 L 388.8,159.9985 v 0"
           style="fill:none;stroke:#9467bd;stroke-width:1.5;stroke-linecap:square;stroke-linejoin:round;stroke-miterlimit:10;stroke-dasharray:none;stroke-opacity:1"
           id="path178"
           inkscape:connector-curvature="0" /></g></g><g
       id="g180"><g
         id="g182"
         clip-path="url(#clipPath186)"><path
           d="m 54.670942,45.883636 h 0.670942 l 0.670942,1.476261 0.670942,-0.734818 4.025651,0.06332 H 221.73547 l 0.67094,1.674237 0.67094,-0.361148 0.67095,-0.508781 0.67094,-0.0028 0.67094,0.2354 24.15391,-0.0098 H 388.8 v 0"
           style="fill:none;stroke:#8c564b;stroke-width:1.5;stroke-linecap:square;stroke-linejoin:round;stroke-miterlimit:10;stroke-dasharray:none;stroke-opacity:1"
           id="path188"
           inkscape:connector-curvature="0" /></g></g><path
       inkscape:connector-curvature="0"
       id="path192"
       style="fill:none;stroke:#000000;stroke-width:0.80000001;stroke-linecap:square;stroke-linejoin:miter;stroke-miterlimit:10;stroke-dasharray:none;stroke-opacity:1"
       d="M 54,36 V 253.44" /><path
       inkscape:connector-curvature="0"
       id="path194"
       style="fill:none;stroke:#000000;stroke-width:0.80000001;stroke-linecap:square;stroke-linejoin:miter;stroke-miterlimit:10;stroke-dasharray:none;stroke-opacity:1"
       d="M 388.8,36 V 253.44" /><path
       inkscape:connector-curvature="0"
       id="path196"
       style="fill:none;stroke:#000000;stroke-width:0.80000001;stroke-linecap:square;stroke-linejoin:miter;stroke-miterlimit:10;stroke-dasharray:none;stroke-opacity:1"
       d="M 54,36 H 388.8" /><path
       inkscape:connector-curvature="0"
       id="path198"
       style="fill:none;stroke:#000000;stroke-width:0.80000001;stroke-linecap:square;stroke-linejoin:miter;stroke-miterlimit:10;stroke-dasharray:none;stroke-opacity:1"
       d="M 54,253.44 H 388.8" /><g
       transform="translate(63.017187,259.44)"
       id="g200"><text
         id="text204"
         style="font-variant:normal;font-weight:normal;font-size:14px;font-family:'DejaVu Sans';-inkscape-font-specification:DejaVuSans;writing-mode:lr-tb;fill:#000000;fill-opacity:1;fill-rule:nonzero;stroke:none"
         transform="scale(1,-1)"><tspan
           id="tspan202"
           sodipodi:role="line"
           y="0"
           x="0 8.8479996 17.136 25.718 29.610001 38.486 47.068001 52.556 56.448002 65.015999 73.891998 78.344002 86.912003 91.839996 96.292 101.78 110.656 119.266 123.718 128.646 137.256 145.866 154.756 163.646 172.228 179.92799 188.034 192.48599 196.37801 204.946 213.51401 222.40401 226.856 231.784 240.35201 246.106 250.558 258.84601 267.42801 273.18201 281.47 285.362 294.23801 303.12799">Evaluation of the feedback loop for varying </tspan></text>
<g
         transform="matrix(0.014,0,0,0.014,307.51465,0)"
         id="g206"><g
           id="g208"><g
             clip-path="url(#clipPath214)"
             id="g210"><path
               inkscape:connector-curvature="0"
               id="path216"
               style="fill:#000000;fill-opacity:1;fill-rule:nonzero;stroke:none"
               d="m 413,254 -21,113 c -15,77 -51,116 -109,116 -44,0 -76,-18 -95,-54 -26,-45 -38,-97 -38,-156 0,-72 12,-125 37,-159 24,-35 56,-52 96,-52 43,0 76,34 100,104 l 30,88 m 50,150 49,143 h 80 L 492,250 511,144 c 3,-16 10,-31 22,-44 13,-16 25,-24 35,-24 h 43 V 0 H 558 C 527,0 498,13 471,41 457,55 448,76 442,104 427,68 404,36 374,8 360,-4 329,-11 283,-11 206,-11 149,13 112,62 74,113 55,183 55,273 c 0,96 20,166 62,211 46,50 101,75 166,75 101,0 161,-52 180,-155" /></g></g></g></g><path
       inkscape:connector-curvature="0"
       id="path218"
       style="fill:#ffffff;fill-opacity:0.33771931;fill-rule:nonzero;stroke:#cccccc;stroke-width:1;stroke-linecap:butt;stroke-linejoin:miter;stroke-miterlimit:10;stroke-dasharray:none;stroke-opacity:0.8"
       d="M 227.33125,201.42437 H 381.8 c 1.33333,0 2,0.66667 2,2 V 246.44 c 0,1.33333 -0.66667,2 -2,2 H 227.33125 c -1.33333,0 -2,-0.66667 -2,-2 v -43.01563 c 0,-1.33333 0.66667,-2 2,-2 z" /><path
       inkscape:connector-curvature="0"
       id="path220"
       style="fill:none;stroke:#1f77b4;stroke-width:1.5;stroke-linecap:square;stroke-linejoin:round;stroke-miterlimit:10;stroke-dasharray:none;stroke-opacity:1"
       d="m 229.33125,240.34625 h 20" /><text
       id="text224"
       style="font-variant:normal;font-weight:normal;font-size:10px;font-family:'DejaVu Sans';-inkscape-font-specification:DejaVuSans;writing-mode:lr-tb;fill:#000000;fill-opacity:1;fill-rule:nonzero;stroke:none"
       transform="scale(1,-1)"
       x="257.33124"
       y="-236.84625"><tspan
         id="tspan222"
         sodipodi:role="line"
         y="-236.84625"
         x="257.33124 263.68124 266.46124 271.67126 277.80124 284.15125 286.93124 293.08124">disabled</tspan></text>
<path
       inkscape:connector-curvature="0"
       id="path226"
       style="fill:none;stroke:#ff7f0e;stroke-width:1.5;stroke-linecap:square;stroke-linejoin:round;stroke-miterlimit:10;stroke-dasharray:none;stroke-opacity:1"
       d="m 229.33125,225.67437 h 20" /><g
       transform="translate(257.33125,222.17437)"
       id="g228"><text
         id="text232"
         style="font-variant:normal;font-weight:normal;font-size:10px;font-family:'DejaVu Sans';-inkscape-font-specification:DejaVuSans;writing-mode:lr-tb;fill:#000000;fill-opacity:1;fill-rule:nonzero;stroke:none"
         transform="matrix(1,0,0,-1,6.5917969,0)"><tspan
           id="tspan230"
           sodipodi:role="line"
           y="0"
           x="0 8.3800001 14.74 17.92 24.280001 30.639999">=0.001</tspan></text>
<g
         transform="scale(0.01)"
         id="g234"><g
           id="g236"><g
             clip-path="url(#clipPath242)"
             id="g238"><path
               inkscape:connector-curvature="0"
               id="path244"
               style="fill:#000000;fill-opacity:1;fill-rule:nonzero;stroke:none"
               d="m 413,254 -21,113 c -15,77 -51,116 -109,116 -44,0 -76,-18 -95,-54 -26,-45 -38,-97 -38,-156 0,-72 12,-125 37,-159 24,-35 56,-52 96,-52 43,0 76,34 100,104 l 30,88 m 50,150 49,143 h 80 L 492,250 511,144 c 3,-16 10,-31 22,-44 13,-16 25,-24 35,-24 h 43 V 0 H 558 C 527,0 498,13 471,41 457,55 448,76 442,104 427,68 404,36 374,8 360,-4 329,-11 283,-11 206,-11 149,13 112,62 74,113 55,183 55,273 c 0,96 20,166 62,211 46,50 101,75 166,75 101,0 161,-52 180,-155" /></g></g></g></g><path
       inkscape:connector-curvature="0"
       id="path246"
       style="fill:none;stroke:#2ca02c;stroke-width:1.5;stroke-linecap:square;stroke-linejoin:round;stroke-miterlimit:10;stroke-dasharray:none;stroke-opacity:1"
       d="m 229.33125,211.0025 h 20" /><g
       transform="translate(257.33125,207.5025)"
       id="g248"><text
         id="text252"
         style="font-variant:normal;font-weight:normal;font-size:10px;font-family:'DejaVu Sans';-inkscape-font-specification:DejaVuSans;writing-mode:lr-tb;fill:#000000;fill-opacity:1;fill-rule:nonzero;stroke:none"
         transform="matrix(1,0,0,-1,6.5917969,0)"><tspan
           id="tspan250"
           sodipodi:role="line"
           y="0"
           x="0 8.3800001 14.74 17.92 24.280001">=0.01</tspan></text>
<g
         transform="scale(0.01)"
         id="g254"><g
           id="g256"><g
             clip-path="url(#clipPath262)"
             id="g258"><path
               inkscape:connector-curvature="0"
               id="path264"
               style="fill:#000000;fill-opacity:1;fill-rule:nonzero;stroke:none"
               d="m 413,254 -21,113 c -15,77 -51,116 -109,116 -44,0 -76,-18 -95,-54 -26,-45 -38,-97 -38,-156 0,-72 12,-125 37,-159 24,-35 56,-52 96,-52 43,0 76,34 100,104 l 30,88 m 50,150 49,143 h 80 L 492,250 511,144 c 3,-16 10,-31 22,-44 13,-16 25,-24 35,-24 h 43 V 0 H 558 C 527,0 498,13 471,41 457,55 448,76 442,104 427,68 404,36 374,8 360,-4 329,-11 283,-11 206,-11 149,13 112,62 74,113 55,183 55,273 c 0,96 20,166 62,211 46,50 101,75 166,75 101,0 161,-52 180,-155" /></g></g></g></g><path
       inkscape:connector-curvature="0"
       id="path266"
       style="fill:none;stroke:#d62728;stroke-width:1.5;stroke-linecap:square;stroke-linejoin:round;stroke-miterlimit:10;stroke-dasharray:none;stroke-opacity:1"
       d="m 320.925,240.34625 h 20" /><g
       transform="translate(348.925,236.84625)"
       id="g268"><text
         id="text272"
         style="font-variant:normal;font-weight:normal;font-size:10px;font-family:'DejaVu Sans';-inkscape-font-specification:DejaVuSans;writing-mode:lr-tb;fill:#000000;fill-opacity:1;fill-rule:nonzero;stroke:none"
         transform="matrix(1,0,0,-1,6.5917969,0)"><tspan
           id="tspan270"
           sodipodi:role="line"
           y="0"
           x="0 8.3800001 14.74 17.92">=0.1</tspan></text>
<g
         transform="scale(0.01)"
         id="g274"><g
           id="g276"><g
             clip-path="url(#clipPath282)"
             id="g278"><path
               inkscape:connector-curvature="0"
               id="path284"
               style="fill:#000000;fill-opacity:1;fill-rule:nonzero;stroke:none"
               d="m 413,254 -21,113 c -15,77 -51,116 -109,116 -44,0 -76,-18 -95,-54 -26,-45 -38,-97 -38,-156 0,-72 12,-125 37,-159 24,-35 56,-52 96,-52 43,0 76,34 100,104 l 30,88 m 50,150 49,143 h 80 L 492,250 511,144 c 3,-16 10,-31 22,-44 13,-16 25,-24 35,-24 h 43 V 0 H 558 C 527,0 498,13 471,41 457,55 448,76 442,104 427,68 404,36 374,8 360,-4 329,-11 283,-11 206,-11 149,13 112,62 74,113 55,183 55,273 c 0,96 20,166 62,211 46,50 101,75 166,75 101,0 161,-52 180,-155" /></g></g></g></g><path
       inkscape:connector-curvature="0"
       id="path286"
       style="fill:none;stroke:#9467bd;stroke-width:1.5;stroke-linecap:square;stroke-linejoin:round;stroke-miterlimit:10;stroke-dasharray:none;stroke-opacity:1"
       d="m 320.925,225.67437 h 20" /><g
       transform="translate(348.925,222.17437)"
       id="g288"><text
         id="text292"
         style="font-variant:normal;font-weight:normal;font-size:10px;font-family:'DejaVu Sans';-inkscape-font-specification:DejaVuSans;writing-mode:lr-tb;fill:#000000;fill-opacity:1;fill-rule:nonzero;stroke:none"
         transform="matrix(1,0,0,-1,6.5917969,0)"><tspan
           id="tspan290"
           sodipodi:role="line"
           y="0"
           x="0 8.3800001">=1</tspan></text>
<g
         transform="scale(0.01)"
         id="g294"><g
           id="g296"><g
             clip-path="url(#clipPath302)"
             id="g298"><path
               inkscape:connector-curvature="0"
               id="path304"
               style="fill:#000000;fill-opacity:1;fill-rule:nonzero;stroke:none"
               d="m 413,254 -21,113 c -15,77 -51,116 -109,116 -44,0 -76,-18 -95,-54 -26,-45 -38,-97 -38,-156 0,-72 12,-125 37,-159 24,-35 56,-52 96,-52 43,0 76,34 100,104 l 30,88 m 50,150 49,143 h 80 L 492,250 511,144 c 3,-16 10,-31 22,-44 13,-16 25,-24 35,-24 h 43 V 0 H 558 C 527,0 498,13 471,41 457,55 448,76 442,104 427,68 404,36 374,8 360,-4 329,-11 283,-11 206,-11 149,13 112,62 74,113 55,183 55,273 c 0,96 20,166 62,211 46,50 101,75 166,75 101,0 161,-52 180,-155" /></g></g></g></g><path
       inkscape:connector-curvature="0"
       id="path306"
       style="fill:none;stroke:#8c564b;stroke-width:1.5;stroke-linecap:square;stroke-linejoin:round;stroke-miterlimit:10;stroke-dasharray:none;stroke-opacity:1"
       d="m 320.925,211.0025 h 20" /><g
       transform="translate(348.925,207.5025)"
       id="g308"><text
         id="text312"
         style="font-variant:normal;font-weight:normal;font-size:10px;font-family:'DejaVu Sans';-inkscape-font-specification:DejaVuSans;writing-mode:lr-tb;fill:#000000;fill-opacity:1;fill-rule:nonzero;stroke:none"
         transform="matrix(1,0,0,-1,6.5917969,0)"><tspan
           id="tspan310"
           sodipodi:role="line"
           y="0"
           x="0 8.3800001">=0</tspan></text>
<g
         transform="scale(0.01)"
         id="g314"><g
           id="g316"><g
             clip-path="url(#clipPath322)"
             id="g318"><path
               inkscape:connector-curvature="0"
               id="path324"
               style="fill:#000000;fill-opacity:1;fill-rule:nonzero;stroke:none"
               d="m 413,254 -21,113 c -15,77 -51,116 -109,116 -44,0 -76,-18 -95,-54 -26,-45 -38,-97 -38,-156 0,-72 12,-125 37,-159 24,-35 56,-52 96,-52 43,0 76,34 100,104 l 30,88 m 50,150 49,143 h 80 L 492,250 511,144 c 3,-16 10,-31 22,-44 13,-16 25,-24 35,-24 h 43 V 0 H 558 C 527,0 498,13 471,41 457,55 448,76 442,104 427,68 404,36 374,8 360,-4 329,-11 283,-11 206,-11 149,13 112,62 74,113 55,183 55,273 c 0,96 20,166 62,211 46,50 101,75 166,75 101,0 161,-52 180,-155" /></g></g></g></g></g></svg>